<?xml version="1.0" encoding="utf-8"?>
<!-- Generator: Adobe Illustrator 24.0.1, SVG Export Plug-In . SVG Version: 6.00 Build 0)  -->
<svg version="1.1" id="Capa_1" xmlns="http://www.w3.org/2000/svg" xmlns:xlink="http://www.w3.org/1999/xlink" x="0px" y="0px"
	 viewBox="0 0 80 80" style="enable-background:new 0 0 80 80;" xml:space="preserve">
<path d="M14.2,54.2c0.7,0,1.4-0.5,1.7-1.1c0.3-0.7,0.1-1.5-0.4-2l-9.3-9.2h71.9c0.1,0,0.1,0,0.2,0c0.5,0,0.9-0.2,1.3-0.6
	c0.3-0.4,0.5-0.8,0.5-1.3c0-0.5-0.2-0.9-0.6-1.3c-0.4-0.3-0.8-0.5-1.3-0.5H6.2l9.3-9.2c0.4-0.3,0.6-0.8,0.6-1.3c0-0.5-0.2-1-0.5-1.3
	c-0.3-0.3-0.8-0.5-1.3-0.5c-0.5,0-1,0.2-1.3,0.5L0.5,38.7C0.2,39,0,39.5,0,40c0,0.5,0.2,1,0.5,1.3l12.4,12.3
	C13.3,54,13.7,54.2,14.2,54.2L14.2,54.2z"/>
</svg>
