<?xml version="1.0" encoding="utf-8"?>
<!-- Generator: Adobe Illustrator 24.0.1, SVG Export Plug-In . SVG Version: 6.00 Build 0)  -->
<svg version="1.1" id="Capa_1" xmlns="http://www.w3.org/2000/svg" xmlns:xlink="http://www.w3.org/1999/xlink" x="0px" y="0px"
	 viewBox="0 0 80 80" style="enable-background:new 0 0 80 80;" xml:space="preserve">
<path d="M22.7,64c-6.2,0-11.9-2.5-15.9-6.6c-9-9-9-26,0-35c4.1-4.1,9.7-6.6,15.9-6.6h50c9.8,0,9.7,15.2,0,15.2h-9.8
	c1.5,3,0.8,6.7-1.5,9c3,3,3,8,0,11.1c4.7,4.7,1.8,13.2-5.1,13.2C45,64.2,33.9,64,22.7,64L22.7,64z M33.6,28.6v17.6
	c0,4.3,6.9,4.2,6.9,0v-23c0-1.9-1.5-3.2-3.3-3.2H22.7c-5.1,0-9.7,2.1-13,5.4c-7.4,7.4-7.4,21.8,0,29.1c3.3,3.3,7.9,5.4,13,5.4h8.5
	c-1.2-2.6-0.7-5.7,0.9-8c-1.6-1.2-2.7-3.2-2.7-5.7v-7.8c-3.3,4.8-8.1,5.6-13.9,5.6c-2.7,0-2.7-4.2,0-4.2c9.7,0,11-3.1,14-11.8
	C30.3,25.7,33.6,26.2,33.6,28.6L33.6,28.6z M43.9,19.9c0.5,1,0.8,2.1,0.8,3.2v3.7h28c4.3,0,4.3-6.9,0-6.9L43.9,19.9z M44.7,31v6.9
	h11.4c4.5,0,4.5-6.9,0-6.9H44.7z M44.7,42.1v4c0,1.1-0.2,2-0.5,2.9h11.9c4.5,0,4.5-6.9,0-6.9L44.7,42.1z M39.4,53.2
	c-1.7,0.1-3-0.3-4.1,1.5c-1.4,2.1-0.1,5.5,2.7,5.5h18.3c4.3,0,4.4-6.9-0.1-6.9L39.4,53.2z"/>
</svg>
