<?xml version="1.0" encoding="utf-8"?>
<!-- Generator: Adobe Illustrator 24.0.1, SVG Export Plug-In . SVG Version: 6.00 Build 0)  -->
<svg version="1.1" id="Capa_1" xmlns="http://www.w3.org/2000/svg" xmlns:xlink="http://www.w3.org/1999/xlink" x="0px" y="0px"
	 viewBox="0 0 80 80" style="enable-background:new 0 0 80 80;" xml:space="preserve">
<path d="M65.8,25.8c-0.7,0-1.4,0.5-1.7,1.1c-0.3,0.7-0.1,1.5,0.4,2l9.3,9.2H1.9c-0.1,0-0.1,0-0.2,0c-0.5,0-0.9,0.2-1.3,0.6
	C0.1,39.1,0,39.6,0,40.1c0,0.5,0.2,0.9,0.6,1.3c0.4,0.3,0.8,0.5,1.3,0.5h71.9L64.5,51c-0.4,0.3-0.6,0.8-0.6,1.3c0,0.5,0.2,1,0.5,1.3
	c0.3,0.3,0.8,0.5,1.3,0.5c0.5,0,1-0.2,1.3-0.5l12.4-12.3C79.8,41,80,40.5,80,40c0-0.5-0.2-1-0.5-1.3L67.1,26.4
	C66.7,26,66.3,25.8,65.8,25.8L65.8,25.8z"/>
</svg>
