<?xml version="1.0" encoding="utf-8"?>
<!-- Generator: Adobe Illustrator 24.0.1, SVG Export Plug-In . SVG Version: 6.00 Build 0)  -->
<svg version="1.1" id="Capa_1" xmlns="http://www.w3.org/2000/svg" xmlns:xlink="http://www.w3.org/1999/xlink" x="0px" y="0px"
	 viewBox="0 0 80 80" style="enable-background:new 0 0 80 80;" xml:space="preserve">
<path d="M41.8,0.9c-0.7,0-1.4,0.4-1.9,0.9c-0.5,0.6-0.7,1.3-0.7,2c0,0.7,0.4,1.4,0.9,1.9c0.6,0.5,1.3,0.7,2,0.7
	c18.1-0.2,32.5,14.1,32.2,32.2c0,0.7,0.3,1.5,0.8,2c0.5,0.5,1.2,0.8,2,0.8c0.7,0,1.5-0.3,2-0.8c0.5-0.5,0.8-1.2,0.8-2
	C80.3,17.7,63.2,0.7,42.1,0.9C42,0.9,41.9,0.9,41.8,0.9L41.8,0.9z M41.7,13c-0.7,0-1.4,0.4-1.9,0.9c-0.5,0.6-0.7,1.3-0.7,2
	c0,0.7,0.4,1.4,0.9,1.9c0.6,0.5,1.3,0.7,2,0.7c11.4-0.1,20.4,8.9,20.3,20.3c0,0.7,0.3,1.5,0.8,2c0.5,0.5,1.2,0.8,2,0.8
	c0.7,0,1.5-0.3,2-0.8c0.5-0.5,0.8-1.2,0.8-2c0.2-14.4-11.5-26.1-26-25.9C41.9,13,41.8,13,41.7,13L41.7,13z M2.8,17.7
	c-0.7,0-1.4,0.3-2,0.8C0.3,19,0,19.7,0,20.5c0,15,5.8,30,17.2,41.4c11.4,11.4,26.4,17.2,41.4,17.2c0.7,0,1.4-0.3,2-0.8
	c0.5-0.5,0.8-1.2,0.8-2V56.5c0-0.6-0.2-1.2-0.6-1.7c-0.4-0.5-0.9-0.8-1.5-1l-15.2-4c-0.7-0.2-1.5-0.1-2.1,0.3
	c-0.6,0.4-1.1,1-1.3,1.7l-1.1,4.2c-3.4-1.8-6.7-4-9.6-6.9c-2.9-2.9-5.1-6.2-6.9-9.6l4.2-1.1c0.7-0.2,1.3-0.7,1.7-1.3
	c0.4-0.6,0.5-1.4,0.3-2.1l-4.1-15.2c-0.1-0.4-0.3-0.8-0.6-1.1c-0.5-0.6-1.3-1-2.1-1L2.8,17.7z M5.7,23.3h14.7l2.8,10.4L18.3,35
	c-0.8,0.2-1.4,0.8-1.8,1.5c-0.4,0.7-0.4,1.6,0,2.3c2.2,5.1,5.5,10,9.7,14.2c4.2,4.2,9,7.4,14.2,9.7c0.7,0.3,1.6,0.3,2.3,0
	c0.7-0.4,1.3-1,1.5-1.8l1.3-4.9l10.4,2.8v14.7c-12.6-0.7-25-5.8-34.7-15.4C11.5,48.3,6.4,35.9,5.7,23.3L5.7,23.3z M41.5,23.3
	c-0.7,0-1.4,0.4-1.9,0.9c-0.5,0.6-0.7,1.3-0.7,2c0,0.7,0.4,1.4,0.9,1.9c0.6,0.5,1.3,0.7,2,0.7c5.8-0.1,10.3,4.4,10.2,10.2
	c0,0.7,0.3,1.5,0.8,2c0.5,0.5,1.2,0.8,2,0.8c0.7,0,1.5-0.3,2-0.8c0.5-0.5,0.8-1.2,0.8-2c0.1-8.8-7.1-16-15.8-15.8
	C41.7,23.3,41.6,23.3,41.5,23.3L41.5,23.3z"/>
</svg>
