<?xml version="1.0" encoding="utf-8"?>
<!-- Generator: Adobe Illustrator 24.0.1, SVG Export Plug-In . SVG Version: 6.00 Build 0)  -->
<svg version="1.1" id="Capa_1" xmlns="http://www.w3.org/2000/svg" xmlns:xlink="http://www.w3.org/1999/xlink" x="0px" y="0px"
	 viewBox="0 0 80 80" style="enable-background:new 0 0 80 80;" xml:space="preserve">
<style type="text/css">
	.st0{fill-rule:evenodd;clip-rule:evenodd;}
</style>
<g id="WA_Logo">
	<g>
		<path class="st0" d="M68.2,11.6C60.7,4.1,50.8,0,40.2,0C18.3,0,0.5,17.8,0.5,39.6c0,7,1.8,13.8,5.3,19.8L0.2,80l21-5.5
			c5.8,3.2,12.3,4.8,18.9,4.8h0l0,0c21.8,0,39.6-17.8,39.7-39.7C79.8,29.1,75.7,19.1,68.2,11.6z M40.2,72.6L40.2,72.6
			c-5.9,0-11.7-1.6-16.8-4.6l-1.2-0.7L9.7,70.6L13,58.4l-0.8-1.2c-3.3-5.3-5-11.3-5-17.5c0-18.2,14.8-32.9,33-32.9
			c8.8,0,17.1,3.4,23.3,9.7c6.2,6.2,9.6,14.5,9.6,23.3C73.1,57.9,58.3,72.6,40.2,72.6z M58.2,47.9c-1-0.5-5.9-2.9-6.8-3.2
			c-0.9-0.3-1.6-0.5-2.2,0.5c-0.7,1-2.6,3.2-3.1,3.9c-0.6,0.7-1.2,0.7-2.1,0.2c-1-0.5-4.2-1.5-8-4.9c-2.9-2.6-4.9-5.9-5.5-6.9
			c-0.6-1-0.1-1.5,0.4-2c0.4-0.4,1-1.2,1.5-1.7c0.5-0.6,0.7-1,1-1.6c0.3-0.7,0.2-1.2-0.1-1.7c-0.2-0.5-2.2-5.4-3.1-7.4
			c-0.8-1.9-1.6-1.7-2.2-1.7c-0.6,0-1.2,0-1.9,0c-0.7,0-1.7,0.2-2.6,1.2c-0.9,1-3.5,3.4-3.5,8.3c0,4.9,3.6,9.6,4,10.2
			c0.5,0.7,7,10.7,16.9,15c2.4,1,4.2,1.6,5.7,2.1c2.4,0.8,4.5,0.6,6.2,0.4c1.9-0.3,5.9-2.4,6.7-4.7c0.8-2.3,0.8-4.3,0.6-4.7
			C59.9,48.7,59.2,48.4,58.2,47.9z"/>
	</g>
</g>
</svg>
