<?xml version="1.0" encoding="utf-8"?>
<!-- Generator: Adobe Illustrator 24.0.1, SVG Export Plug-In . SVG Version: 6.00 Build 0)  -->
<svg version="1.1" id="Capa_1" xmlns="http://www.w3.org/2000/svg" xmlns:xlink="http://www.w3.org/1999/xlink" x="0px" y="0px"
	 viewBox="0 0 80 80" style="enable-background:new 0 0 80 80;" xml:space="preserve">
<style type="text/css">
	.st0{fill-rule:evenodd;clip-rule:evenodd;fill:#272525;}
</style>
<path class="st0" d="M80,42.4c0,7.6-13.6,13.8-33.2,15c0,0,0,0-0.1,0c-0.4,0-0.8-0.3-0.8-0.8c0,0,0,0,0-0.1h0v-5.1h0
	c0-0.4,0.3-0.8,0.7-0.8c12.5-1.1,25.8-4.6,25.8-11.1c0-2.9-3.5-5.8-9.6-8c-0.3-0.1-0.5-0.1-0.8-0.2c-0.4-0.1-0.7-0.6-0.6-1
	c0.1-0.4,0.6-0.7,1-0.6c0.1,0,0.3,0.1,0.4,0.1c0.1,0,0.1,0,0.2,0c0.1,0,0.2,0.1,0.3,0.1C74,32.9,80,37.4,80,42.4L80,42.4z M62,21.8
	c0-2.1,1.7-3.8,3.8-3.8c2.1,0,3.8,1.7,3.8,3.8s-1.7,3.8-3.8,3.8C63.7,25.6,62,23.9,62,21.8L62,21.8z M63.6,21.8c0,1.2,1,2.2,2.2,2.2
	c1.2,0,2.2-1,2.2-2.2c0-1.2-1-2.2-2.2-2.2C64.6,19.6,63.6,20.6,63.6,21.8L63.6,21.8z M49.2,33.5v-8c0-2.9,2.3-5.2,5.2-5.2
	c2.8,0,5.2,2.3,5.2,5.2v8c0,2.9-2.3,5.2-5.2,5.2C51.5,38.7,49.2,36.4,49.2,33.5z M50.8,33.5c0,2,1.6,3.6,3.5,3.6
	c1.9,0,3.5-1.6,3.5-3.6v-8c0-2-1.6-3.6-3.5-3.6s-3.5,1.6-3.5,3.6V33.5z M36.8,25.5v2.7c0.9-0.9,2.2-1.4,3.5-1.4c2.9,0,5.2,2.2,5.2,5
	v1.7c0,2.9-2.3,5.2-5.2,5.2c-2.8,0-5.2-2.3-5.2-5.2v-8c0-2.9,2.3-5.2,5.2-5.2c2.8,0,5.2,2.3,5.2,5.2c0,0.5-0.4,0.8-0.8,0.8
	c-0.5,0-0.8-0.4-0.8-0.8c0-2-1.6-3.6-3.5-3.6C38.3,22,36.8,23.6,36.8,25.5L36.8,25.5z M36.8,33.5c0,2,1.6,3.6,3.5,3.6
	c1.9,0,3.5-1.6,3.5-3.6v-1.7c0-1.9-1.5-3.4-3.5-3.4c-1.9,0-3.5,1.6-3.5,3.6V33.5z M26.4,37.1h-4.8c-0.5,0-0.8,0.4-0.8,0.8
	c0,0.5,0.4,0.8,0.8,0.8h4.8c2.7,0,5-2.3,5-5c0-1.7-0.9-3.3-2.2-4.2c1.4-0.9,2.2-2.4,2.2-4.2c0-2.8-2.2-5-5-5h-4.8
	c-0.5,0-0.8,0.4-0.8,0.8c0,0.5,0.4,0.8,0.8,0.8h4.8c1.8,0,3.3,1.5,3.3,3.4c0,1.9-1.5,3.4-3.3,3.4h-4.8c-0.5,0-0.8,0.4-0.8,0.8
	c0,0.5,0.4,0.8,0.8,0.8h4.8c1.8,0,3.3,1.5,3.3,3.4C29.7,35.6,28.2,37.1,26.4,37.1L26.4,37.1z M37.2,46.3c-0.2-0.2-0.6-0.3-0.9-0.2
	c-0.3,0.1-0.5,0.4-0.5,0.8v4c-15.8-0.8-28-5.7-28-11.3c0-3,3.6-6,9.9-8.1c0,0,0.1,0,0.1-0.1c0,0,0.1,0,0.1,0c0.4-0.1,0.7-0.6,0.6-1
	c-0.1-0.4-0.6-0.7-1-0.6C6.4,32.6,0,37.2,0,42.4c0,7.9,15.3,14.3,35.8,15.1v3.6c0,0.3,0.2,0.6,0.5,0.8c0.1,0,0.2,0.1,0.3,0.1
	c0.2,0,0.4-0.1,0.6-0.2l7.1-7.1c0.2-0.2,0.2-0.4,0.2-0.6c0-0.2-0.1-0.4-0.2-0.6L37.2,46.3z"/>
</svg>
