<?xml version="1.0" encoding="utf-8"?>
<!-- Generator: Adobe Illustrator 24.0.1, SVG Export Plug-In . SVG Version: 6.00 Build 0)  -->
<svg version="1.1" id="Capa_1" xmlns="http://www.w3.org/2000/svg" xmlns:xlink="http://www.w3.org/1999/xlink" x="0px" y="0px"
	 viewBox="0 0 80 80" style="enable-background:new 0 0 80 80;" xml:space="preserve">
<g>
	<path d="M40,4.3C18.8,4.3,0,17.1,0,27.2c0,4.4,3.6,8,8,8h12.5c2.7,0,5.2-1.4,6.8-3.4c1.5,2,4,3.4,6.8,3.4h4.5v22.5h-7
		c-0.9,0-1.6,0.7-1.6,1.6s0.7,1.6,1.6,1.6h7v13.4c0,0.9,0.7,1.6,1.6,1.6s1.6-0.7,1.6-1.6V60.8h7c0.9,0,1.6-0.7,1.6-1.6
		s-0.7-1.6-1.6-1.6h-7V35.2H46c2.8,0,5.2-1.4,6.8-3.4c1.5,2,4,3.4,6.8,3.4H72c4.4,0,8-3.6,8-8C80,15,61.3,4.3,40,4.3z M20.4,32H8
		c-2.7,0-4.8-2.2-4.8-4.8c0-3.7,4.1-8.6,10.5-12.5c3.1-1.9,8.8-4.8,16.3-6.3c-3,3.6-4.4,9.8-4.4,18.8C25.6,29.8,23.2,32,20.4,32z
		 M46,32H34c-2.8,0-5.2-2.3-5.2-4.8c0-17.1,5.1-19.5,10.2-19.8c0.3,0,0.7,0,1,0c0.2,0,0.5,0,0.7,0c5.2,0.1,10.6,2.3,10.6,19.8
		C51.2,29.8,48.8,32,46,32z M72,32H59.6c-2.8,0-5.2-2.3-5.2-4.8c0-9.2-1.4-15.4-4.5-19c16,2.6,27,11.2,27,19
		C76.9,29.9,74.7,32,72,32z"/>
	<path d="M28.6,64.9c-0.3-0.5-0.8-0.9-1.4-0.9H15.7l-1.9-11.5c-0.1-0.9-1-1.4-1.8-1.3c-0.9,0.1-1.4,1-1.3,1.8l2.1,12.3l-4,8.1
		c-0.4,0.8-0.1,1.7,0.7,2.1c0.2,0.1,0.5,0.2,0.7,0.2c0.6,0,1.1-0.3,1.4-0.9l3.8-7.7h10.9l3.8,7.7c0.3,0.5,0.8,0.9,1.4,0.9
		c0.2,0,0.5-0.1,0.7-0.2c0.8-0.4,1.1-1.3,0.7-2.1L28.6,64.9z"/>
	<path d="M67.3,65.4l2.1-12.3c0.1-0.9-0.4-1.7-1.3-1.8c-0.9-0.2-1.7,0.4-1.8,1.3l-1.9,11.5H52.8c-0.6,0-1.1,0.3-1.4,0.9l-4.3,8.5
		c-0.4,0.8-0.1,1.7,0.7,2.1c0.2,0.1,0.5,0.2,0.7,0.2c0.6,0,1.1-0.3,1.4-0.9l3.8-7.7h10.9l3.8,7.7c0.3,0.5,0.8,0.9,1.4,0.9
		c0.2,0,0.5-0.1,0.7-0.2c0.8-0.4,1.1-1.3,0.7-2.1L67.3,65.4z"/>
</g>
</svg>
