<?xml version="1.0" encoding="utf-8"?>
<!-- Generator: Adobe Illustrator 24.0.1, SVG Export Plug-In . SVG Version: 6.00 Build 0)  -->
<svg version="1.1" id="Capa_1" xmlns="http://www.w3.org/2000/svg" xmlns:xlink="http://www.w3.org/1999/xlink" x="0px" y="0px"
	 viewBox="0 0 80 80" style="enable-background:new 0 0 80 80;" xml:space="preserve">
<g>
	<path d="M58.2,27.5c0-0.9,0-1.7,2.6-1.7s2.6,0.8,2.6,1.7v8.3h3.2v-8.3c0-0.9,0-1.7,2.6-1.7c2.6,0,2.6,0.8,2.6,1.7v8.3h3.2v-8.3
		c0-2.3-1-4.9-5.8-4.9c-2,0-3.3,0.5-4.2,1.2c-0.9-0.7-2.2-1.2-4.2-1.2c-1,0-1.9,0.1-2.6,0.4v-0.4H55v13.3h3.2V27.5z"/>
	<path d="M74,17.5c1.3-1.1,2.2-1.8,2.9-2.3c1.1-0.8,1.9-1.4,2.4-2.3c0.6-1,0.9-2.8,0.3-4.4c-0.5-1.2-1.4-2-2.6-2.4
		c-1.6-0.5-3.3-0.4-4.7,0.3c-1.2,0.6-1.9,1.7-2.3,3l3.1,0.8c0.1-0.5,0.4-0.8,0.7-1C74.4,9,75.3,9,76,9.2c0.4,0.1,0.5,0.3,0.6,0.5
		c0.2,0.5,0,1.4-0.1,1.6C76.3,11.7,76,12,75,12.7c-1,0.7-2.4,1.8-4.4,3.6c-0.3,0.3-0.5,0.7-0.5,1.2v1.7c0,0.9,0.7,1.6,1.6,1.6H80
		v-3.2H74z"/>
	<path d="M78.3,37.7c-0.9,0-1.6,0.7-1.6,1.6V58L40,70.8L3.2,58V32L40,19.2l10.2,3.5c0.8,0.3,1.7-0.2,2-1c0.3-0.8-0.2-1.7-1-2
		L40.5,16c-0.3-0.1-0.7-0.1-1.1,0L1.1,29.3C0.4,29.5,0,30.1,0,30.8v28.4c0,0.7,0.4,1.3,1.1,1.5L39.4,74c0.2,0.1,0.3,0.1,0.5,0.1
		c0.2,0,0.4,0,0.5-0.1l38.4-13.3c0.6-0.2,1.1-0.8,1.1-1.5V39.3C79.9,38.4,79.2,37.7,78.3,37.7z"/>
	<path d="M40,22.6c-0.9,0-1.6,0.7-1.6,1.6V43L6.9,54c-0.8,0.3-1.3,1.2-1,2c0.2,0.7,0.8,1.1,1.5,1.1c0.2,0,0.4,0,0.5-0.1l32-11.2
		l32,11.2c0.8,0.3,1.7-0.1,2-1c0.3-0.8-0.1-1.7-1-2L41.6,43V24.2C41.6,23.3,40.8,22.6,40,22.6z"/>
</g>
</svg>
