<?xml version="1.0" encoding="utf-8"?>
<!-- Generator: Adobe Illustrator 24.0.1, SVG Export Plug-In . SVG Version: 6.00 Build 0)  -->
<svg version="1.1" id="Capa_1" xmlns="http://www.w3.org/2000/svg" xmlns:xlink="http://www.w3.org/1999/xlink" x="0px" y="0px"
	 viewBox="0 0 80 80" style="enable-background:new 0 0 80 80;" xml:space="preserve">
<g>
	<path d="M72.4,38.4H36H15.3v-7.5c0-0.8,0.7-1.5,1.5-1.5c0.8,0,1.5,0.7,1.5,1.5V33c0,0.9,0.7,1.6,1.6,1.6c0.9,0,1.6-0.7,1.6-1.6
		v-2.1c0-2.5-2.1-4.6-4.6-4.6s-4.6,2.1-4.6,4.6v7.5H7.6c-0.9,0-1.6,0.7-1.6,1.6v38.4c0,0.9,0.7,1.6,1.6,1.6H36h36.4
		c0.9,0,1.6-0.7,1.6-1.6V40C73.9,39.1,73.2,38.4,72.4,38.4z M70.8,50.6H37.5v-9h33.3V50.6z M34.4,41.6v17.1H9.2V41.6H34.4z
		 M9.2,61.8h25.2v15.1H9.2V61.8z M37.5,76.9V53.7h33.3v23.2H37.5z"/>
	<path d="M64.3,56.6H44c-0.9,0-1.6,0.7-1.6,1.6v14.2c0,0.9,0.7,1.6,1.6,1.6h20.2c0.9,0,1.6-0.7,1.6-1.6V58.2
		C65.8,57.3,65.1,56.6,64.3,56.6z M62.7,70.8H45.6v-11h17.1V70.8z"/>
	<path d="M40,29.4h28.3c0.5,0,1-0.3,1.3-0.7c0.3-0.4,0.4-1,0.2-1.5l-4-10.1c-0.2-0.6-0.8-1-1.5-1h-0.5V1.6c0-0.9-0.7-1.6-1.6-1.6
		H46.1c-0.9,0-1.6,0.7-1.6,1.6v14.6H44c-0.6,0-1.2,0.4-1.5,1l-4,10.1c-0.2,0.5-0.1,1,0.2,1.5C39,29.2,39.5,29.4,40,29.4z M47.6,3.1
		h13v13h-13V3.1z M45.1,19.3h1h16.2h1l2.8,7H42.3L45.1,19.3z"/>
	<path d="M44,47.6h4c0.9,0,1.6-0.7,1.6-1.6s-0.7-1.6-1.6-1.6h-4c-0.9,0-1.6,0.7-1.6,1.6S43.2,47.6,44,47.6z"/>
	<path d="M60.2,47.6h4c0.9,0,1.6-0.7,1.6-1.6s-0.7-1.6-1.6-1.6h-4c-0.9,0-1.6,0.7-1.6,1.6S59.4,47.6,60.2,47.6z"/>
	<path d="M19.8,49.7h4c0.9,0,1.6-0.7,1.6-1.6c0-0.9-0.7-1.6-1.6-1.6h-4c-0.9,0-1.6,0.7-1.6,1.6C18.2,49,18.9,49.7,19.8,49.7z"/>
	<path d="M23.8,66.7h-4c-0.9,0-1.6,0.7-1.6,1.6s0.7,1.6,1.6,1.6h4c0.9,0,1.6-0.7,1.6-1.6S24.7,66.7,23.8,66.7z"/>
</g>
</svg>
