<?xml version="1.0" encoding="utf-8"?>
<!-- Generator: Adobe Illustrator 24.0.1, SVG Export Plug-In . SVG Version: 6.00 Build 0)  -->
<svg version="1.1" id="Capa_1" xmlns="http://www.w3.org/2000/svg" xmlns:xlink="http://www.w3.org/1999/xlink" x="0px" y="0px"
	 viewBox="0 0 80 80" style="enable-background:new 0 0 80 80;" xml:space="preserve">
<path d="M74.2,34.2h-2.7V16.5c0-3.2-2.6-5.8-5.8-5.8H14.4c-3.2,0-5.8,2.6-5.8,5.8v17.6H5.8C2.6,34.2,0,36.8,0,40v8.5v19.2
	c0,0.9,0.7,1.6,1.6,1.6h76.9c0.9,0,1.6-0.7,1.6-1.6V48.5V40C80,36.8,77.4,34.2,74.2,34.2z M11.7,16.5c0-1.5,1.2-2.7,2.7-2.7h51.2
	c1.5,0,2.7,1.2,2.7,2.7v17.6h-3.3v-4.5c0-3.4-2.8-6.2-6.2-6.2h-9.9c-3.4,0-6.2,2.8-6.2,6.2v4.5h-5.4v-4.5c0-3.4-2.8-6.2-6.2-6.2
	h-9.9c-3.4,0-6.2,2.8-6.2,6.2v4.5h-3.3V16.5z M61.9,34.2H45.8v-4.5c0-1.7,1.4-3.1,3.1-3.1h9.9c1.7,0,3.1,1.4,3.1,3.1V34.2z
	 M34.2,34.2H18.1v-4.5c0-1.7,1.4-3.1,3.1-3.1h9.9c1.7,0,3.1,1.4,3.1,3.1V34.2z M3.1,40c0-1.5,1.2-2.7,2.7-2.7h10.7h19.2h8.5h19.2
	h10.7c1.5,0,2.7,1.2,2.7,2.7v7H3.1V40z M76.9,66.2H3.1V50.1h73.7V66.2z"/>
</svg>
