<?xml version="1.0" encoding="utf-8"?>
<!-- Generator: Adobe Illustrator 24.0.1, SVG Export Plug-In . SVG Version: 6.00 Build 0)  -->
<svg version="1.1" id="Capa_1" xmlns="http://www.w3.org/2000/svg" xmlns:xlink="http://www.w3.org/1999/xlink" x="0px" y="0px"
	 viewBox="0 0 80 80" style="enable-background:new 0 0 80 80;" xml:space="preserve">
<g>
	<path d="M79.9,5.6c-0.2-0.8-1.1-1.3-1.9-1.1L1.1,27.2c-0.8,0.2-1.3,1.1-1.1,1.9c0.2,0.7,0.8,1.1,1.5,1.1c0.1,0,0.3,0,0.4-0.1
		l2.5-0.7v44.4c0,0.9,0.7,1.6,1.6,1.6s1.6-0.7,1.6-1.6V28.7c0-0.1,0-0.1,0-0.1l64.7-19v64.4c0,0.9,0.7,1.6,1.6,1.6s1.6-0.7,1.6-1.6
		V8.6l3.4-1C79.7,7.4,80.2,6.5,79.9,5.6z"/>
	<path d="M62,51c-0.1-0.2-0.3-0.5-0.3-0.6l-3-12.3c-0.7-2.4-3-4.1-5.5-4.1H26.8c-2.5,0-4.8,1.7-5.6,4.2l-2.9,12.1
		c-0.1,0.3-0.2,0.5-0.3,0.7l-3.4,5.1c-0.6,1-1,2.1-1,3.2v5.8c0,1.5,0.9,2.8,2.3,3.3v3.2c0,2.1,1.7,3.8,3.8,3.8h4.5
		c2.1,0,3.8-1.7,3.8-3.8v-3h24v3c0,2.1,1.7,3.8,3.8,3.8h4.5c2.1,0,3.8-1.7,3.8-3.8v-3.2c1.3-0.5,2.3-1.8,2.3-3.3v-5.8
		c0-1.2-0.3-2.3-1-3.2L62,51z M24.3,38.9c0.3-1.1,1.4-1.9,2.5-1.9h26.3c1.2,0,2.2,0.8,2.5,1.8l2.6,10.9H21.7L24.3,38.9z M16.7,59.3
		c0-0.5,0.2-1,0.5-1.5l3.3-4.9h39l3.3,4.9c0.3,0.4,0.5,1,0.5,1.5v5.8c0,0.2-0.2,0.4-0.4,0.4H48.4v-5.2c0-0.9-0.7-1.6-1.6-1.6H33.2
		c-0.9,0-1.6,0.7-1.6,1.6v5.2H17.1c-0.2,0-0.4-0.2-0.4-0.4V59.3z M45.2,65.6H34.8v-3.6h10.4V65.6z M24.9,71.6c0,0.4-0.3,0.7-0.7,0.7
		h-4.5c-0.4,0-0.7-0.3-0.7-0.7v-3h5.9V71.6z M60.3,72.3h-4.5c-0.4,0-0.7-0.3-0.7-0.7v-3H61v3C61,72,60.7,72.3,60.3,72.3z"/>
	<path d="M21.9,61.9h4.5c0.9,0,1.6-0.7,1.6-1.6s-0.7-1.6-1.6-1.6h-4.5c-0.9,0-1.6,0.7-1.6,1.6S21,61.9,21.9,61.9z"/>
	<path d="M53.6,61.9h4.5c0.9,0,1.6-0.7,1.6-1.6s-0.7-1.6-1.6-1.6h-4.5c-0.9,0-1.6,0.7-1.6,1.6S52.7,61.9,53.6,61.9z"/>
</g>
</svg>
