<?xml version="1.0" encoding="utf-8"?>
<!-- Generator: Adobe Illustrator 24.0.1, SVG Export Plug-In . SVG Version: 6.00 Build 0)  -->
<svg version="1.1" id="Capa_1" xmlns="http://www.w3.org/2000/svg" xmlns:xlink="http://www.w3.org/1999/xlink" x="0px" y="0px"
	 viewBox="0 0 80 80" style="enable-background:new 0 0 80 80;" xml:space="preserve">
<g>
	<path d="M69.2,25.9c-6.3,0-10.8,4.1-10.8,9.9v8.9c-4-2.5-11.4-3.8-18.5-3.8c-7.1,0-14.4,1.3-18.5,3.8v-8.9c0-5.8-4.4-9.9-10.8-9.9
		C4.4,25.9,0,30,0,35.8c0,3.8,1.5,6.2,2.7,8.3C4,46.2,5,48,5,50.9v20.1c0,0.9,0.7,1.6,1.6,1.6h13.4c0.9,0,1.6-0.7,1.6-1.6v-3.4h37
		v3.4c0,0.9,0.7,1.6,1.6,1.6h13.4c0.9,0,1.6-0.7,1.6-1.6V50.9c0-2.9,1.1-4.7,2.3-6.7c1.3-2.1,2.7-4.5,2.7-8.3
		C80,30,75.6,25.9,69.2,25.9z M18.4,69.3H8.2V50.9c0-3.8-1.5-6.2-2.7-8.3c-1.2-2-2.3-3.8-2.3-6.7c0-5,4.1-6.8,7.6-6.8
		s7.6,1.8,7.6,6.8V69.3z M21.5,64.3V49.2c0-1.8,7-5.1,18.5-5.1c11.5,0,18.5,3.3,18.5,5.1v15.1H21.5z M74.6,42.5
		c-1.3,2.1-2.7,4.5-2.7,8.3v18.5H61.6V35.8c0-5,4.1-6.8,7.6-6.8s7.6,1.8,7.6,6.8C76.9,38.7,75.8,40.5,74.6,42.5z"/>
	<path d="M14.9,25.7c0.9,0,1.6-0.7,1.6-1.6v-3.3c0-5.7,10.3-10.1,23.5-10.1c13.2,0,23.5,4.4,23.5,10.1v3.3c0,0.9,0.7,1.6,1.6,1.6
		s1.6-0.7,1.6-1.6v-3.3c0-8.7-13.4-13.3-26.6-13.3c-13.2,0-26.6,4.6-26.6,13.3v3.3C13.4,25,14.1,25.7,14.9,25.7z"/>
</g>
</svg>
