<?xml version="1.0" encoding="utf-8"?>
<!-- Generator: Adobe Illustrator 24.0.1, SVG Export Plug-In . SVG Version: 6.00 Build 0)  -->
<svg version="1.1" id="Capa_1" xmlns="http://www.w3.org/2000/svg" xmlns:xlink="http://www.w3.org/1999/xlink" x="0px" y="0px"
	 viewBox="0 0 80 80" style="enable-background:new 0 0 80 80;" xml:space="preserve">
<g>
	<path d="M65.2,31.2h-2v-20V6.4c0-3.5-2.9-6.4-6.4-6.4H23.2c-3.5,0-6.4,2.9-6.4,6.4v4.8v20h-2c-2.9,0-5.2,2.3-5.2,5.2V40
		c0,0.9,0.7,1.6,1.6,1.6h3.2v0.8c0,10.4,5.9,15.4,14.8,19.5c1.1,0.5,1.6,1.6,1.5,2.7L29,76.9h-3.4c-0.9,0-1.6,0.7-1.6,1.6
		s0.7,1.6,1.6,1.6h4.8h19.2h4.8c0.9,0,1.6-0.7,1.6-1.6s-0.7-1.6-1.6-1.6H51l-1.7-12.3c-0.2-1.1,0.4-2.1,1.4-2.6
		c8.9-4.3,14.9-9.3,14.9-19.5v-0.8h3.2c0.9,0,1.6-0.7,1.6-1.6v-3.6C70.4,33.5,68.1,31.2,65.2,31.2z M23.2,3.1h33.6
		c1.8,0,3.2,1.5,3.2,3.2v3.2H20V6.4C20,4.6,21.4,3.1,23.2,3.1z M20,12.7H60v18.5H20V12.7z M62.5,42.4c0,8.7-4.8,12.7-13.1,16.7
		c-2.3,1.1-3.6,3.5-3.2,5.9l1.6,11.9H32.2l1.6-11.8c0.4-2.5-0.9-4.9-3.2-6c-8.3-3.9-13-7.8-13-16.7v-0.8h44.9V42.4z M67.3,38.4H12.7
		v-2c0-1.1,0.9-2,2-2h50.4c1.1,0,2,0.9,2,2V38.4z"/>
	<path d="M52,16.8c-0.9,0-1.6,0.7-1.6,1.6v2.4c0,0.9,0.7,1.6,1.6,1.6s1.6-0.7,1.6-1.6v-2.4C53.6,17.5,52.9,16.8,52,16.8z"/>
</g>
</svg>
