<?xml version="1.0" encoding="utf-8"?>
<!-- Generator: Adobe Illustrator 24.0.1, SVG Export Plug-In . SVG Version: 6.00 Build 0)  -->
<svg version="1.1" id="Capa_1" xmlns="http://www.w3.org/2000/svg" xmlns:xlink="http://www.w3.org/1999/xlink" x="0px" y="0px"
	 viewBox="0 0 80 80" style="enable-background:new 0 0 80 80;" xml:space="preserve">
<g>
	<path d="M69.3,0H10.7C8.8,0,7.3,1.5,7.3,3.4v73.2c0,1.9,1.5,3.4,3.4,3.4h58.6c1.9,0,3.4-1.5,3.4-3.4V3.4C72.7,1.5,71.2,0,69.3,0z
		 M69.5,76.6c0,0.1-0.1,0.3-0.3,0.3H10.7c-0.1,0-0.3-0.1-0.3-0.3V3.4c0-0.1,0.1-0.3,0.3-0.3h58.6c0.1,0,0.3,0.1,0.3,0.3V76.6z"/>
	<path d="M40,20.1c-14,0-25.4,11.4-25.4,25.4S26,70.9,40,70.9s25.4-11.4,25.4-25.4S54,20.1,40,20.1z M40,67.7
		c-12.3,0-22.2-10-22.2-22.2s10-22.2,22.2-22.2s22.2,10,22.2,22.2S52.3,67.7,40,67.7z"/>
	<path d="M54.9,35.3c-3.4-4.9-8.9-7.8-14.9-7.8c-9.9,0-18,8.1-18,18s8.1,18,18,18c5.9,0,11.5-2.9,14.9-7.8c0.4-0.6,0.4-1.3-0.1-1.9
		c-1.4-1.7-2.3-4.9-2.3-8.3c0-3.4,0.9-6.6,2.3-8.3C55.2,36.6,55.3,35.9,54.9,35.3z M51.6,54.8c-2.8,3.5-7.1,5.6-11.6,5.6
		c-8.2,0-14.9-6.7-14.9-14.9S31.8,30.6,40,30.6c4.5,0,8.8,2.1,11.6,5.6c-1.4,2.3-2.2,5.7-2.2,9.3C49.4,49.1,50.2,52.4,51.6,54.8z"/>
	<path d="M19.9,15.9c0.9,0,1.6-0.7,1.6-1.6V8.9c0-0.9-0.7-1.6-1.6-1.6c-0.9,0-1.6,0.7-1.6,1.6v5.5C18.3,15.2,19,15.9,19.9,15.9z"/>
	<path d="M27.2,15.9c0.9,0,1.6-0.7,1.6-1.6V8.9c0-0.9-0.7-1.6-1.6-1.6c-0.9,0-1.6,0.7-1.6,1.6v5.5C25.6,15.2,26.3,15.9,27.2,15.9z"
		/>
	<path d="M34.5,15.9c0.9,0,1.6-0.7,1.6-1.6V8.9c0-0.9-0.7-1.6-1.6-1.6S32.9,8,32.9,8.9v5.5C32.9,15.2,33.6,15.9,34.5,15.9z"/>
</g>
</svg>
